<?xml version="1.0" standalone="no"?>
<!DOCTYPE svg PUBLIC "-//W3C//DTD SVG 20010904//EN"
 "http://www.w3.org/TR/2001/REC-SVG-20010904/DTD/svg10.dtd">
<svg version="1.0" xmlns="http://www.w3.org/2000/svg"
 width="1024.000000pt" height="1024.000000pt" viewBox="0 0 1024.000000 1024.000000"
 preserveAspectRatio="xMidYMid meet">

<g transform="translate(0.000000,1024.000000) scale(0.100000,-0.100000)"
fill="#000000" stroke="none">
<path d="M4895 8925 c-11 -2 -69 -9 -130 -15 -539 -57 -1122 -278 -1572 -597
-613 -434 -1092 -1164 -1268 -1933 -65 -287 -85 -470 -85 -789 1 -416 46 -712
167 -1068 257 -766 764 -1407 1446 -1830 107 -65 298 -173 309 -173 4 0 9 183
10 407 l3 408 30 42 c17 23 35 42 40 43 6 0 24 -21 40 -48 l30 -47 3 -432 3
-433 169 0 170 0 0 193 c0 105 3 216 6 244 l7 53 -39 16 c-22 9 -76 33 -121
54 -66 31 -83 43 -83 60 0 22 35 59 56 60 6 0 78 -27 160 -60 82 -33 149 -60
150 -60 1 0 -1 -126 -4 -280 l-5 -280 674 0 c371 0 711 3 757 7 l82 6 0 276 0
276 108 34 c127 40 284 83 288 78 2 -1 -57 -34 -131 -72 l-135 -70 0 -267 0
-268 60 0 60 0 0 234 c0 175 3 236 13 243 6 5 93 35 192 67 99 31 287 93 418
136 175 58 240 75 243 66 3 -7 4 -40 2 -72 l-3 -59 -155 -52 c-85 -28 -246
-79 -357 -114 l-203 -63 0 -203 c0 -115 4 -203 9 -203 33 0 304 132 453 220
434 258 782 578 1064 980 576 818 763 1829 519 2799 -149 594 -435 1099 -865
1532 -212 213 -398 358 -634 493 -413 238 -805 374 -1276 442 -96 14 -620 29
-675 19z m420 -426 c104 -38 158 -81 387 -307 189 -185 237 -276 245 -467 5
-130 -14 -220 -68 -313 -47 -79 -522 -553 -593 -590 -44 -23 -63 -26 -141 -26
-96 1 -131 11 -195 59 -65 48 -482 469 -519 525 -91 135 -120 284 -86 445 20
94 62 176 133 260 73 85 319 314 387 359 47 32 141 70 195 80 58 11 196 -3
255 -25z m-1190 -128 c77 -34 125 -114 125 -203 -1 -95 -60 -180 -146 -208
-56 -19 -147 -7 -195 24 -141 94 -129 310 23 385 54 27 138 28 193 2z m2167 1
c9 -9 -4 -12 -54 -12 -36 0 -79 -5 -97 -11 -46 -16 -49 -4 -4 20 42 23 133 25
155 3z m-2761 -291 c64 -65 20 -171 -71 -171 -33 0 -48 6 -71 29 -64 65 -20
171 71 171 33 0 48 -6 71 -29z m3338 13 c28 -20 53 -76 45 -101 -19 -60 -48
-83 -104 -83 -37 0 -87 42 -95 81 -19 85 83 153 154 103z m-232 -313 c28 -9
67 -28 87 -42 l35 -24 -52 -12 c-29 -7 -84 -12 -123 -13 -39 0 -86 -5 -105
-12 -50 -17 -106 -64 -135 -114 -25 -43 -28 -44 -75 -44 -60 0 -62 10 -18 98
30 61 91 124 139 144 104 44 164 48 247 19z m-2757 -27 c107 -32 200 -163 200
-284 0 -108 -73 -223 -168 -265 l-42 -19 0 -218 0 -218 140 0 139 0 17 36 c41
85 161 113 241 55 70 -51 92 -143 50 -215 -31 -56 -67 -79 -130 -84 -61 -5
-116 17 -156 64 l-23 27 -209 -6 -209 -5 0 276 0 277 -48 17 c-232 83 -271
390 -67 530 72 49 169 61 265 32z m-684 -13 c61 -28 97 -80 102 -149 3 -47 0
-63 -20 -92 -38 -55 -82 -80 -145 -80 -105 0 -173 65 -173 165 0 128 121 208
236 156z m4045 -11 c35 -19 20 -28 -51 -32 -39 -2 -70 -2 -70 -1 0 1 10 11 22
23 24 22 68 26 99 10z m-627 -211 c28 -33 35 -92 13 -120 -58 -75 -177 -33
-177 63 0 56 34 88 94 88 37 0 48 -5 70 -31z m-3828 -105 c45 -22 76 -66 82
-119 l4 -43 212 -4 c194 -3 214 -5 252 -25 56 -30 95 -64 128 -112 57 -82 56
-59 56 -856 l1 -735 27 -1 c15 0 250 -1 523 0 483 0 497 0 530 20 53 33 104
28 145 -13 29 -29 34 -41 34 -82 -1 -104 -90 -146 -181 -84 l-44 30 -580 -1
-580 -1 -5 799 c-3 448 -9 807 -14 818 -20 44 -49 76 -85 95 -33 17 -63 19
-258 21 -130 1 -227 -2 -239 -8 -60 -31 -141 -21 -195 24 -116 98 -47 293 103
293 28 0 65 -7 84 -16z m4416 -171 l67 -68 -67 -72 -67 -73 -67 64 c-38 35
-68 69 -68 76 0 12 118 140 129 140 4 0 37 -30 73 -67z m406 11 c27 -31 28
-54 1 -88 -26 -33 -86 -37 -114 -6 -34 38 -19 101 30 120 28 12 56 3 83 -26z
m-3236 -63 l42 -38 -48 -56 c-54 -64 -60 -64 -115 -1 -38 42 -36 75 5 112 37
32 68 28 116 -17z m1659 29 c10 -6 26 -24 34 -40 19 -37 9 -66 -40 -109 l-37
-32 -30 28 c-16 15 -39 40 -49 55 -19 26 -19 29 -3 53 30 46 85 66 125 45z
m448 -224 c16 -20 -2 -46 -98 -141 l-71 -69 -50 49 -50 49 92 93 92 92 36 -29
c20 -16 43 -36 49 -44z m523 -42 c-6 -11 -47 -55 -91 -99 l-81 -79 -50 49
c-27 27 -50 52 -50 56 0 4 41 48 92 99 l91 91 50 -49 c41 -41 47 -52 39 -68z
m-1172 32 l53 -49 -77 -75 -77 -75 -55 54 -54 53 72 73 c40 40 76 72 79 71 4
-2 31 -25 59 -52z m-1226 -25 l69 -70 -42 -50 c-24 -28 -46 -51 -49 -51 -4 0
-40 32 -81 71 l-74 70 48 49 c27 28 52 50 55 50 3 0 36 -31 74 -69z m-1439
-73 c4 -26 4 -61 0 -78 -7 -30 -7 -30 -76 -30 l-69 0 0 74 0 75 53 3 c28 2 60
3 69 3 12 1 18 -11 23 -47z m4322 37 c52 -15 111 -54 84 -55 -8 0 -29 -12 -48
-26 -27 -21 -40 -24 -66 -18 -79 17 -157 -4 -216 -59 -36 -35 -81 -119 -81
-154 0 -19 -6 -22 -65 -25 -77 -4 -78 -1 -45 105 57 185 251 287 437 232z
m-1322 -247 c-18 -22 -25 -41 -25 -74 0 -34 -6 -51 -29 -76 -26 -29 -35 -33
-77 -32 -40 1 -52 6 -76 33 -53 59 -29 145 48 177 19 8 48 30 66 49 l32 36 42
-42 43 -42 -24 -29z m545 27 c0 -7 -9 -20 -21 -31 -17 -15 -19 -25 -14 -66 13
-92 -31 -158 -106 -158 -83 0 -135 56 -126 136 6 53 16 67 82 110 28 17 63 46
79 63 l30 31 38 -37 c21 -20 38 -42 38 -48z m-1737 -124 l87 -92 0 -1025 0
-1026 41 -59 42 -59 38 56 39 55 0 1027 0 1027 141 143 c77 78 143 142 147
142 9 0 92 -83 92 -92 0 -4 -54 -60 -120 -124 l-120 -117 0 -507 0 -508 133
-4 c158 -4 174 -11 294 -121 45 -42 95 -83 111 -91 24 -12 80 -15 300 -16 261
-2 273 -1 298 19 83 65 202 42 253 -49 19 -34 22 -52 19 -96 -7 -87 -58 -140
-143 -150 -73 -8 -131 25 -165 94 l-25 51 -280 3 -280 3 -48 28 c-27 16 -78
57 -115 91 -114 106 -114 106 -241 106 l-111 0 0 -360 c0 -198 3 -360 6 -360
3 0 26 14 50 31 109 75 285 137 474 166 159 25 624 24 860 -1 173 -18 350 -42
356 -48 2 -2 21 -110 43 -239 22 -129 59 -340 81 -469 22 -129 40 -240 40
-247 0 -9 -169 -13 -697 -16 -773 -5 -767 -4 -973 -73 -115 -38 -238 -101
-369 -186 l-85 -55 -115 70 c-217 131 -350 186 -541 223 -72 14 -191 17 -788
21 l-703 5 5 26 c3 15 15 88 27 162 24 158 114 687 127 745 l8 40 99 12 c352
42 435 47 735 47 267 -1 319 -3 420 -22 182 -33 329 -89 450 -171 l45 -31 5
938 5 937 -114 117 -115 117 19 23 c10 13 32 35 49 50 l29 27 46 -48 c25 -27
85 -90 134 -140z m2491 109 c50 -44 63 -90 41 -147 -45 -118 -210 -109 -244
14 -13 47 3 96 45 132 49 43 109 44 158 1z m-4304 -122 l0 -83 -70 0 -70 0 0
73 0 72 65 0 c37 0 65 4 65 10 0 6 2 10 5 10 3 0 5 -37 5 -82z m-390 -8 l0
-70 -69 0 c-63 0 -69 2 -75 23 -8 30 -8 102 1 110 3 4 37 7 75 7 l68 0 0 -70z
m4124 -161 c36 -42 38 -56 34 -221 -3 -135 -5 -147 -28 -181 -31 -46 -109 -87
-164 -87 -91 0 -113 14 -266 165 -80 78 -155 148 -167 154 -14 7 -111 11 -289
11 l-266 0 -35 -30 c-54 -48 -118 -39 -149 21 -18 37 -12 74 18 107 l21 22
377 0 377 0 39 -29 c21 -16 91 -81 154 -146 138 -140 156 -151 205 -131 l35
15 0 145 0 145 31 36 c17 19 35 35 39 35 5 0 20 -14 34 -31z m-2434 -354 l0
-355 -360 0 -360 0 3 355 2 355 358 0 357 0 0 -355z m284 284 c31 -37 33 -67
6 -102 -51 -64 -139 -30 -140 55 0 74 86 104 134 47z m-1974 -135 l0 -134 125
0 125 0 0 138 0 137 70 -3 70 -4 0 -364 0 -364 -70 0 -70 0 0 160 0 160 -200
0 -200 0 0 179 c0 98 3 191 6 207 l5 29 70 -3 69 -4 0 -134z m5211 110 c46
-41 40 -123 -11 -149 -42 -22 -74 -19 -109 11 -26 21 -31 33 -31 69 0 36 5 48
32 70 26 22 39 26 66 21 19 -3 43 -13 53 -22z m-526 -225 c60 -11 115 -34 115
-47 -1 -13 -75 -54 -95 -52 -113 11 -186 -12 -262 -83 -41 -37 -46 -39 -93
-35 -28 3 -53 8 -56 11 -10 10 43 92 81 125 46 41 88 63 150 78 65 16 89 16
160 3z m-1249 -19 c32 -11 62 -24 67 -29 4 -4 -22 -11 -59 -15 -91 -9 -197
-48 -250 -91 -24 -20 -58 -60 -76 -91 -33 -55 -33 -55 -76 -51 -24 3 -46 7
-49 11 -12 11 18 91 54 144 83 123 242 172 389 122z m-3865 -5 c88 -46 92
-187 7 -231 -69 -36 -154 -11 -189 56 -24 44 -24 76 -1 119 34 63 119 89 183
56z m2406 -101 c21 -21 24 -32 19 -62 -10 -67 -76 -93 -130 -51 -19 15 -26 29
-26 57 0 76 83 110 137 56z m2689 -103 c31 -14 47 -30 64 -66 20 -42 21 -51
11 -87 -24 -77 -95 -114 -169 -86 -95 36 -111 166 -28 228 46 34 66 36 122 11z
m-1801 -86 c49 -48 16 -125 -54 -125 -48 0 -75 28 -75 77 0 68 80 98 129 48z
m-2865 -95 l0 -70 -75 0 -75 0 0 63 c0 35 3 67 7 70 3 4 37 7 75 7 l68 0 0
-70z m5390 -58 c49 -24 80 -75 80 -131 0 -119 -106 -173 -231 -120 -45 20 -55
21 -104 10 -55 -12 -146 -65 -225 -131 -99 -82 -318 -242 -360 -263 -35 -17
-63 -22 -125 -22 -69 0 -86 4 -127 27 -67 40 -95 80 -194 270 -56 109 -99 180
-121 199 -31 26 -40 29 -107 29 l-74 0 -4 65 -3 65 90 0 c166 -1 204 -34 336
-285 40 -77 83 -157 96 -177 40 -64 111 -85 175 -52 17 9 131 91 252 183 235
178 276 202 375 223 39 7 65 18 69 28 30 84 123 122 202 82z m-5809 -15 c55
-37 79 -81 79 -147 0 -99 -62 -160 -163 -160 -138 0 -213 145 -134 260 47 69
152 92 218 47z m419 -243 l0 -74 -75 0 -75 0 0 64 c0 93 -1 92 80 88 l70 -4 0
-74z m392 66 c8 -19 10 -103 2 -124 -5 -12 -21 -16 -75 -16 l-69 0 0 78 0 77
67 0 c51 0 70 -4 75 -15z m1031 -197 c43 -22 87 -98 87 -152 0 -95 -72 -163
-170 -163 -102 1 -170 71 -170 173 0 124 137 201 253 142z m-526 0 c107 -51
125 -225 30 -288 -64 -41 -160 -36 -216 11 l-29 24 -410 0 c-462 0 -420 -8
-414 81 l4 49 398 0 398 0 23 47 c43 86 131 117 216 76z m1023 -61 c49 -24 80
-75 80 -131 0 -112 -106 -174 -209 -122 -92 47 -105 158 -28 232 44 42 100 50
157 21z m3326 -63 c46 -43 40 -121 -10 -154 -90 -59 -202 37 -149 126 10 19
30 40 44 47 32 17 86 8 115 -19z m-5686 -27 c41 -20 70 -71 70 -122 0 -98
-113 -162 -197 -110 -64 39 -85 105 -55 173 31 71 109 96 182 59z m3308 -38
c69 -48 35 -144 -52 -144 -25 0 -60 33 -70 67 -8 24 15 78 36 86 26 11 64 7
86 -9z m1938 -155 c3 -5 -19 -9 -48 -9 -29 -1 -71 -7 -93 -15 -47 -17 -55 -14
-22 8 48 31 147 41 163 16z m-4745 -62 c61 -33 103 -101 103 -170 2 -148 -146
-241 -279 -177 -86 42 -129 132 -105 221 33 125 168 185 281 126z m-37 -568
c24 -27 27 -38 23 -73 -12 -85 -105 -116 -166 -55 -38 37 -41 83 -10 123 43
55 105 57 153 5z m4801 9 c15 -14 28 -38 32 -60 5 -32 1 -41 -25 -68 -23 -22
-40 -30 -67 -30 -48 0 -95 44 -95 90 0 74 98 117 155 68z m-3815 -684 c0 -19
-74 -94 -92 -94 -17 0 -18 -2 -8 -15 10 -12 9 -24 -8 -63 -11 -26 -22 -56 -24
-67 -4 -18 -7 -17 -36 14 -18 18 -32 39 -32 45 0 7 -24 20 -52 29 -29 9 -109
39 -178 66 l-125 49 75 7 c87 8 399 32 448 34 17 0 32 -2 32 -5z m627 -1 c-4
-3 -74 -10 -156 -14 -145 -8 -248 -20 -282 -34 -12 -4 -24 3 -39 24 l-21 31
252 0 c139 0 249 -3 246 -7z m2448 -18 c104 -9 190 -17 191 -18 2 -2 -92 -38
-263 -99 -49 -18 -52 -21 -58 -61 -12 -79 -10 -77 -62 -61 -36 11 -136 14
-468 14 l-422 0 -306 -150 c-168 -82 -313 -150 -321 -150 -8 0 -135 59 -283
131 -388 190 -318 170 -591 168 l-235 -1 -14 43 c-8 24 -19 48 -24 54 -5 5 -9
13 -9 17 0 4 124 8 276 8 l277 0 126 -56 c69 -31 205 -96 301 -144 l175 -87
295 143 295 143 410 1 c407 2 531 8 490 25 -158 64 -205 77 -309 86 -60 5
-112 12 -115 15 -10 11 442 -4 644 -21z"/>
<path d="M5080 8226 c0 -44 -1 -44 -39 -51 -56 -9 -151 -57 -185 -93 l-29 -31
-40 34 c-22 19 -43 35 -47 35 -3 0 -23 -17 -43 -38 l-38 -38 47 -46 46 -46
-21 -63 c-11 -35 -21 -71 -21 -81 0 -15 -8 -18 -50 -18 l-50 0 0 -66 0 -67 49
6 49 6 12 -47 c6 -26 22 -66 35 -89 l23 -43 -55 -53 -56 -54 41 -44 41 -44 53
53 54 52 37 -38 c37 -37 37 -39 37 -119 0 -89 10 -126 43 -161 100 -108 311
-82 363 45 8 19 14 69 14 121 l0 89 40 32 40 32 36 -41 c58 -64 70 -68 110
-29 19 18 34 39 34 45 0 7 -24 34 -54 59 l-54 47 29 56 c16 32 32 72 35 90 6
31 7 32 60 32 l54 0 0 59 c0 58 -1 60 -30 66 -16 4 -38 4 -49 0 -16 -5 -20 1
-26 37 -4 24 -15 64 -25 90 l-18 48 50 41 49 42 -37 38 c-21 22 -43 39 -49 39
-6 0 -26 -15 -44 -34 l-33 -34 -52 42 c-57 46 -137 84 -185 88 -30 2 -31 4
-31 45 l0 43 -60 0 -60 0 0 -44z m173 -172 c64 -22 140 -92 174 -162 25 -50
28 -68 28 -152 0 -79 -4 -102 -23 -137 -33 -63 -77 -108 -148 -154 l-64 -42 0
-109 c0 -60 -4 -118 -10 -128 -24 -45 -117 -41 -138 5 -7 15 -12 73 -12 134
l0 107 -36 17 c-53 26 -139 112 -164 164 -37 80 -45 144 -26 220 28 116 100
200 204 238 51 19 159 18 215 -1z"/>
<path d="M4987 7684 c-10 -11 -9 -89 3 -118 9 -24 14 -26 67 -26 80 0 85 5 81
81 l-3 64 -70 3 c-39 1 -74 0 -78 -4z"/>
<path d="M5150 7621 c0 -41 5 -73 11 -77 14 -8 118 -8 127 1 4 4 7 37 7 73 l0
67 -72 3 -73 3 0 -70z"/>
<path d="M3971 8234 c-63 -53 -28 -154 54 -154 48 0 95 45 95 90 0 22 -9 41
-29 61 -37 37 -79 38 -120 3z"/>
<path d="M3697 7619 c-129 -68 -102 -270 41 -309 69 -18 164 25 197 90 35 68
6 168 -62 215 -47 32 -120 33 -176 4z"/>
<path d="M4277 6742 c-20 -22 -22 -53 -5 -70 21 -21 66 -14 84 13 15 23 15 27
0 50 -20 30 -56 33 -79 7z"/>
<path d="M3080 7621 c-15 -29 -12 -56 8 -74 35 -32 82 -15 97 34 16 48 -80 85
-105 40z"/>
<path d="M2664 7295 c-18 -28 -11 -60 17 -76 26 -14 56 -3 75 27 15 22 15 26
0 49 -22 34 -69 34 -92 0z"/>
<path d="M6566 5108 c-9 -12 -16 -28 -16 -35 0 -18 37 -53 55 -53 21 0 55 36
55 59 0 48 -67 68 -94 29z"/>
<path d="M3680 4636 c-74 -7 -194 -21 -266 -31 l-132 -18 -6 -59 c-4 -33 -6
-61 -4 -63 2 -1 120 11 263 27 305 35 662 44 795 19 119 -21 233 -58 323 -102
109 -54 114 -61 20 -34 -259 75 -606 83 -1223 30 -91 -8 -172 -15 -181 -15
-12 0 -19 -16 -26 -61 l-10 -61 66 6 c705 66 1108 64 1314 -6 82 -27 215 -92
252 -122 30 -25 30 -25 -52 4 -45 16 -133 40 -195 52 -108 22 -132 23 -508 21
-387 -2 -872 -21 -886 -36 -4 -4 -11 -30 -14 -58 l-7 -52 146 7 c80 4 236 12
346 18 110 6 333 12 495 12 246 1 311 -2 390 -17 219 -42 368 -117 513 -256
l47 -45 63 60 c143 140 301 210 562 249 134 20 349 19 815 -5 212 -11 408 -20
436 -20 l51 0 -10 60 -10 60 -51 0 c-28 0 -204 7 -391 16 -433 20 -805 15
-945 -14 -52 -11 -131 -32 -175 -46 l-80 -25 29 24 c38 31 144 82 229 111 205
70 506 74 1180 18 104 -8 190 -14 192 -12 1 2 -3 29 -8 60 l-11 57 -51 6
c-224 24 -527 39 -780 40 -256 0 -305 -3 -415 -22 -69 -13 -140 -27 -159 -33
-60 -17 -46 -3 38 40 230 115 495 134 1046 76 132 -14 254 -27 272 -29 l32 -3
-6 61 c-3 33 -6 61 -7 62 -1 1 -96 14 -211 29 -186 25 -244 28 -500 28 -263 1
-300 -1 -402 -22 -223 -45 -378 -113 -491 -217 -69 -63 -188 -233 -218 -312
l-17 -43 -52 94 c-97 177 -212 294 -362 370 -96 49 -166 73 -303 102 -101 22
-145 26 -365 29 -161 3 -298 -1 -385 -9z"/>
<path d="M3372 4013 c-134 -3 -184 -7 -187 -16 -2 -6 -6 -33 -9 -59 l-6 -48
393 0 c487 -1 845 -14 957 -35 122 -23 230 -59 345 -115 l100 -48 22 26 c12
15 22 30 23 34 0 15 -133 103 -225 149 -118 57 -248 93 -399 108 -100 10 -522
11 -1014 4z"/>
<path d="M5890 4010 c-110 -12 -236 -43 -336 -81 -95 -36 -128 -55 -215 -121
l-67 -50 20 -34 c11 -19 22 -34 24 -34 2 0 34 15 71 34 145 73 307 123 473
147 41 5 337 13 658 16 l582 6 -6 51 c-4 28 -10 55 -14 59 -10 11 -1090 18
-1190 7z"/>
<path d="M5085 3747 c-39 -33 -39 -91 -1 -123 46 -40 103 -29 131 26 14 26 14
34 1 64 -25 59 -84 74 -131 33z"/>
<path d="M3886 6263 c-3 -4 -6 -102 -6 -220 l0 -213 220 0 220 0 0 215 0 215
-97 1 c-54 1 -150 3 -214 5 -64 1 -120 0 -123 -3z"/>
<path d="M2230 5490 c-11 -11 -20 -27 -20 -35 0 -18 35 -55 53 -55 24 0 57 31
57 55 0 24 -33 55 -57 55 -7 0 -22 -9 -33 -20z"/>
<path d="M4069 5109 c-31 -31 -4 -88 44 -89 21 0 57 34 57 55 0 22 -37 55 -60
55 -11 0 -29 -9 -41 -21z"/>
<path d="M3560 5110 c-11 -11 -20 -27 -20 -35 0 -21 36 -55 58 -55 24 0 52 31
52 58 0 21 -34 52 -57 52 -7 0 -22 -9 -33 -20z"/>
<path d="M2687 4692 c-23 -25 -22 -85 1 -105 25 -23 78 -21 102 3 45 45 11
120 -53 120 -20 0 -41 -8 -50 -18z"/>
<path d="M2430 8595 l0 -285 263 0 264 0 -1 285 -1 285 -262 0 -263 0 0 -285z
m172 113 l3 -83 35 0 c33 0 35 -2 38 -37 l3 -38 -40 0 c-38 0 -39 1 -46 39 -6
36 -10 40 -38 43 l-32 3 -3 78 -3 77 40 0 40 0 3 -82z m258 43 c0 -32 -4 -40
-22 -45 -51 -13 -58 -9 -58 39 l0 45 40 0 c40 0 40 0 40 -39z m-102 -83 c3
-34 1 -38 -20 -39 -48 -3 -67 8 -68 38 0 21 32 44 59 41 22 -3 26 -8 29 -40z
m90 -80 l3 -38 -40 0 c-40 0 -41 1 -41 34 0 36 13 46 55 43 16 -2 21 -10 23
-39z m-88 -78 c0 -24 -6 -33 -27 -41 -34 -13 -49 -6 -55 23 -7 38 1 48 43 48
37 0 39 -2 39 -30z m-159 -82 c-6 -40 -8 -43 -38 -46 -24 -2 -33 1 -33 11 0 8
-3 29 -6 46 -6 31 -6 31 38 31 l44 0 -5 -42z m257 0 c3 -39 -9 -48 -55 -40
-19 4 -23 11 -23 44 l0 39 38 -3 c35 -3 37 -5 40 -40z"/>
<path d="M7260 8640 l0 -240 245 0 245 0 0 240 0 240 -245 0 -245 0 0 -240z
m310 -20 l0 -80 -50 0 -50 0 0 74 c0 81 0 81 73 85 l27 1 0 -80z"/>
<path d="M3320 8775 l0 -65 65 0 65 0 0 65 0 65 -65 0 -65 0 0 -65z"/>
<path d="M6770 8775 l0 -65 65 0 65 0 0 65 0 65 -65 0 -65 0 0 -65z"/>
<path d="M7960 8458 l0 -68 65 0 65 0 0 68 0 67 -65 0 -65 0 0 -67z"/>
<path d="M2120 8455 l0 -65 65 0 65 0 0 65 0 65 -65 0 -65 0 0 -65z"/>
<path d="M7640 8136 l0 -63 61 -7 c34 -3 65 -3 70 0 5 3 9 34 9 70 l0 64 -70
0 -70 0 0 -64z"/>
<path d="M1732 7943 l3 -228 213 -3 212 -2 0 170 0 170 -55 0 -55 0 0 60 0 60
-160 0 -160 0 2 -227z"/>
<path d="M8200 7945 l0 -225 105 0 105 0 0 225 0 225 -105 0 -105 0 0 -225z"/>
<path d="M2290 7975 l0 -65 65 0 65 0 0 65 0 65 -65 0 -65 0 0 -65z"/>
<path d="M7800 7980 l0 -60 65 0 65 0 0 60 0 60 -65 0 -65 0 0 -60z"/>
<path d="M1484 7449 c3 -17 6 -47 6 -66 l0 -34 63 3 62 3 3 63 3 62 -72 0 -71
0 6 -31z"/>
<path d="M8620 7415 l0 -66 68 3 67 3 3 63 3 62 -71 0 -70 0 0 -65z"/>
<path d="M1880 7335 l0 -65 65 0 65 0 0 65 0 65 -65 0 -65 0 0 -65z"/>
<path d="M8250 7340 l0 -60 65 0 65 0 0 60 0 60 -65 0 -65 0 0 -60z"/>
<path d="M1360 6885 l0 -205 225 0 225 0 0 135 0 135 -55 0 c-61 0 -58 -5 -58
98 l0 42 -169 0 -168 0 0 -205z"/>
<path d="M8444 7035 c-3 -6 -3 -69 -2 -141 l3 -129 83 -3 82 -3 0 -74 0 -75
134 0 134 0 7 183 c4 100 5 198 3 217 l-3 35 -219 0 c-149 1 -220 -3 -222 -10z"/>
<path d="M1240 6451 l0 -58 62 -6 c34 -3 66 -3 70 -1 4 3 8 32 8 65 l0 59 -70
0 -70 0 0 -59z"/>
<path d="M8770 6378 c-145 -75 -92 -298 72 -298 104 0 175 74 166 172 -12 118
-130 182 -238 126z"/>
<path d="M1363 6190 c-64 -39 -84 -136 -40 -201 98 -145 324 -13 248 145 -36
73 -136 100 -208 56z"/>
<path d="M8780 5735 l0 -85 85 0 85 0 0 85 0 85 -85 0 -85 0 0 -85z"/>
<path d="M1160 5636 l0 -66 54 0 c30 0 61 -3 70 -6 14 -5 16 4 16 60 l0 66
-54 0 c-30 0 -61 3 -70 6 -14 5 -16 -4 -16 -60z"/>
<path d="M8968 5546 l4 -63 63 -2 63 -2 4 66 3 65 -70 0 -70 0 3 -64z"/>
<path d="M1350 5493 l0 -78 75 3 75 4 0 74 0 74 -75 0 -75 0 0 -77z"/>
<path d="M8780 5360 l0 -80 43 0 c23 0 59 3 80 6 l37 7 0 73 0 74 -80 0 -80 0
0 -80z"/>
<path d="M1170 5328 l0 -63 66 0 66 0 5 63 4 62 -70 0 -71 0 0 -62z"/>
<path d="M8670 5101 l0 -58 46 -7 c87 -12 84 -14 84 59 l0 65 -65 0 -65 0 0
-59z"/>
<path d="M8970 5090 l0 -60 70 0 70 0 0 60 0 60 -70 0 -70 0 0 -60z"/>
<path d="M1340 5010 l0 -100 84 0 c46 0 91 -3 100 -6 14 -5 16 7 16 100 l0
106 -100 0 -100 0 0 -100z"/>
<path d="M1572 4623 l3 -58 63 -3 62 -3 0 61 0 60 -65 0 -66 0 3 -57z"/>
<path d="M8520 4425 l0 -205 210 0 210 0 0 145 0 145 -65 0 -65 0 0 60 0 60
-145 0 -145 0 0 -205z"/>
<path d="M1240 4525 l0 -65 59 0 59 0 4 61 c1 33 1 63 -1 65 -2 2 -31 4 -63 4
l-58 0 0 -65z"/>
<path d="M1315 4075 l0 -245 235 2 235 3 0 240 0 240 -235 3 -235 2 0 -245z
m265 135 c0 -29 1 -30 50 -30 l50 0 0 -35 0 -35 -50 0 -50 0 0 -35 0 -35 50 0
50 0 0 -35 0 -35 -50 0 -50 0 0 -36 c0 -33 -2 -36 -22 -30 -13 3 -29 6 -35 6
-8 0 -13 13 -13 31 0 30 0 30 -47 28 l-48 -3 -3 37 -3 37 50 0 51 0 0 35 0 35
-50 0 -50 0 0 35 c0 37 6 40 63 36 22 -2 27 2 27 22 0 31 7 37 47 37 30 0 33
-3 33 -30z"/>
<path d="M8387 3900 c3 -11 2 -36 -1 -55 l-7 -35 -64 0 -65 0 0 -45 0 -45 65
0 65 0 0 -60 0 -60 96 0 95 0 -3 58 -3 57 63 3 62 3 0 44 0 45 -66 0 -67 0 6
55 6 55 -94 0 c-88 0 -93 -1 -88 -20z"/>
<path d="M8848 3738 c-2 -13 -1 -42 1 -65 l3 -43 59 0 59 0 0 65 0 65 -59 0
c-54 0 -60 -2 -63 -22z"/>
<path d="M1900 3595 l0 -115 105 0 105 0 0 115 0 115 -105 0 -105 0 0 -115z"/>
<path d="M8060 3491 l0 -91 84 0 c58 0 85 4 88 13 3 6 6 45 7 85 l2 72 -75 0
c-41 0 -81 3 -90 6 -14 5 -16 -6 -16 -85z"/>
<path d="M1593 3380 c-54 -24 -83 -70 -83 -130 0 -28 8 -58 20 -78 21 -34 87
-72 125 -72 11 0 39 9 62 20 112 50 112 210 0 260 -23 11 -51 20 -62 20 -11 0
-39 -9 -62 -20z"/>
<path d="M7813 3264 c-2 -6 -3 -33 -1 -60 l3 -49 63 -3 62 -3 0 60 0 59 -61 4
c-39 2 -63 -1 -66 -8z"/>
<path d="M2239 3127 c-122 -57 -156 -202 -71 -316 75 -100 244 -91 313 17 70
110 36 243 -76 293 -45 21 -127 24 -166 6z"/>
<path d="M8513 3121 c-50 -23 -74 -57 -80 -114 -15 -150 189 -216 274 -88 44
66 17 163 -57 201 -49 25 -83 25 -137 1z"/>
<path d="M1770 2801 l0 -88 58 -7 c31 -3 66 -4 77 -2 11 3 23 5 28 5 4 1 7 42
7 91 l0 90 -85 0 -85 0 0 -89z"/>
<path d="M7714 2805 c-3 -7 -4 -43 -2 -81 l3 -69 78 -3 77 -3 0 86 0 86 -76
-2 c-48 -1 -77 -6 -80 -14z"/>
<path d="M3000 2588 l0 -63 60 3 60 4 0 59 0 59 -60 0 -60 0 0 -62z"/>
<path d="M7140 2590 l0 -60 60 0 60 0 0 60 0 60 -60 0 -60 0 0 -60z"/>
<path d="M2680 2580 l0 -60 55 0 55 0 0 60 0 60 -55 0 -55 0 0 -60z"/>
<path d="M8150 2565 l0 -65 60 0 60 0 0 65 0 65 -60 0 -60 0 0 -65z"/>
<path d="M2097 2463 c-3 -5 -3 -21 -2 -38 2 -16 3 -41 4 -55 1 -23 5 -25 56
-27 l55 -3 0 65 0 65 -54 0 c-30 0 -57 -3 -59 -7z"/>
<path d="M3040 2290 l0 -110 100 0 100 0 0 110 0 110 -100 0 -100 0 0 -110z"/>
<path d="M7460 2165 l0 -215 195 0 195 0 0 215 0 215 -195 0 -195 0 0 -215z"/>
<path d="M6980 2255 l0 -95 90 0 90 0 0 58 c0 31 3 74 6 95 l7 37 -97 0 -96 0
0 -95z"/>
<path d="M4065 2323 c-11 -2 -30 -6 -42 -9 -26 -5 -53 -51 -53 -89 0 -16 12
-38 29 -56 l29 -29 1102 0 c1219 0 1147 -4 1170 65 15 46 -3 84 -50 107 -33
17 -105 18 -1100 17 -586 -1 -1074 -3 -1085 -6z"/>
<path d="M2533 2240 c-40 -24 -53 -48 -53 -100 0 -58 50 -110 105 -110 88 0
147 82 112 155 -19 40 -70 75 -107 75 -14 0 -39 -9 -57 -20z"/>
<path d="M4335 2003 c-68 -17 -88 -102 -36 -154 l29 -29 806 0 c581 0 812 3
830 11 31 15 59 70 50 103 -3 13 -17 35 -31 48 l-25 23 -801 1 c-441 1 -811 0
-822 -3z"/>
<path d="M4416 1680 c-92 -17 -109 -142 -27 -197 30 -20 47 -23 131 -23 l97 0
12 -54 c24 -110 126 -239 232 -296 75 -40 195 -70 278 -70 244 1 467 161 512
368 l11 52 95 0 c108 0 149 14 176 59 38 65 9 142 -61 160 -43 12 -1395 13
-1456 1z"/>
</g>
</svg>
